# xmcd
#
# Track frame offsets: 
#        150
#        13710
#        27147
#        39447
#        54212
#        66977
#        78110
#        91657
#        106047
#        118782
#        131472
#        143337
#        154892
#        164062
#        174530
#        185022
#        196495
#        208432
#
# Disc length: 2941 seconds
#
# Revision: 2
# Processed by: cddbd v1.5.1PL0 Copyright (c) Steve Scherf et al.
# Submitted via: ExactAudioCopy v0.95b3
#
DISCID=ee0b7b12
DTITLE=Various Artist - Blow, Brother Blow! - Charly Blues Masterworks - Vol.
DTITLE=32
DYEAR=1993
DGENRE=Blues
TTITLE0=Sonny Boy Williamson I - Good Morning Schoolgirl
TTITLE1=Sonny Boy Williamson I - Sugar Mama Blues
TTITLE2=Little Walter - Juke
TTITLE3=Little Walter - Blue Light
TTITLE4=Walter Horton - Back Track
TTITLE5=Walter Horton - Little Water's Boogie
TTITLE6=Joe Hill Louis, Walter Horton - Easy
TTITLE7=Willie Nix, James Cotton - Tiger Man
TTITLE8=Muddy Waters, James Cotton - Baker Shop Boogie
TTITLE9=Hot Shot Love - I Live The Life I Love (I Love The Life I Live
TTITLE9=)
TTITLE10=Hot Shot Love - Wolf Call Boogie
TTITLE11=Doctor Ross - Juke Box Boogie
TTITLE12=Snooky Pryor - You Tried To Ruin Me
TTITLE13=Billy Boy Arnold - Kissing At Midnight
TTITLE14=Jimmy Reed - I Ain't Got You
TTITLE15=Jimmy Reed - Signals Of Love
TTITLE16=Sonny Boy Williamson II - Ninety Nine
TTITLE17=Sonny Boy Williamson II - Trust My Baby
EXTD=YEAR: 1992
EXTT0=
EXTT1=
EXTT2=
EXTT3=
EXTT4=
EXTT5=
EXTT6=
EXTT7=
EXTT8=
EXTT9=
EXTT10=
EXTT11=
EXTT12=
EXTT13=
EXTT14=
EXTT15=
EXTT16=
EXTT17=
PLAYORDER=
